<svg width="40" height="40" viewBox="0 0 40 40" fill="none" xmlns="http://www.w3.org/2000/svg">
<rect width="40" height="40" fill="#2A3138"/>
<path d="M12.9647 17.6341H13.5501V18.2195H12.9647V17.6341ZM12.9647 17.0488H13.5501V17.6341H12.9647V17.0488ZM12.9647 16.4634H13.5501V17.0488H12.9647V16.4634ZM13.5501 16.4634H14.1355V17.0488H13.5501V16.4634ZM13.5501 17.0488H14.1355V17.6341H13.5501V17.0488ZM14.1355 17.0488H14.7208V17.6341H14.1355V17.0488ZM14.1355 17.6341H14.7208V18.2195H14.1355V17.6341ZM13.5501 17.6341H14.1355V18.2195H13.5501V17.6341ZM14.7208 17.6341H15.3062V18.2195H14.7208V17.6341ZM14.7208 17.0488H15.3062V17.6341H14.7208V17.0488ZM14.7208 16.4634H15.3062V17.0488H14.7208V16.4634ZM14.7208 15.878H15.3062V16.4634H14.7208V15.878ZM14.1355 15.878H14.7208V16.4634H14.1355V15.878ZM14.1355 16.4634H14.7208V17.0488H14.1355V16.4634ZM15.3062 15.878H15.8916V16.4634H15.3062V15.878ZM15.8916 15.878H16.4769V16.4634H15.8916V15.878ZM16.4769 15.878H17.0623V16.4634H16.4769V15.878ZM16.4769 16.4634H17.0623V17.0488H16.4769V16.4634ZM16.4769 17.0488H17.0623V17.6341H16.4769V17.0488ZM16.4769 17.6341H17.0623V18.2195H16.4769V17.6341ZM15.8916 17.6341H16.4769V18.2195H15.8916V17.6341ZM15.3062 17.6341H15.8916V18.2195H15.3062V17.6341ZM15.3062 17.0488H15.8916V17.6341H15.3062V17.0488ZM15.3062 16.4634H15.8916V17.0488H15.3062V16.4634ZM15.8916 16.4634H16.4769V17.0488H15.8916V16.4634ZM15.8916 17.0488H16.4769V17.6341H15.8916V17.0488ZM17.0623 17.0488H17.6477V17.6341H17.0623V17.0488ZM17.0623 16.4634H17.6477V17.0488H17.0623V16.4634ZM17.6477 16.4634H18.233V17.0488H17.6477V16.4634ZM17.6477 17.0488H18.233V17.6341H17.6477V17.0488ZM18.233 17.0488H18.8184V17.6341H18.233V17.0488ZM18.233 17.6341H18.8184V18.2195H18.233V17.6341ZM18.233 18.2195H18.8184V18.8049H18.233V18.2195ZM17.6477 18.2195H18.233V18.8049H17.6477V18.2195ZM17.6477 17.6341H18.233V18.2195H17.6477V17.6341ZM17.0623 17.6341H17.6477V18.2195H17.0623V17.6341ZM17.0623 18.2195H17.6477V18.8049H17.0623V18.2195ZM16.4769 18.2195H17.0623V18.8049H16.4769V18.2195ZM15.8916 18.2195H16.4769V18.8049H15.8916V18.2195ZM18.8184 18.2195H19.4038V18.8049H18.8184V18.2195ZM18.8184 18.8049H19.4038V19.3902H18.8184V18.8049ZM18.8184 19.3902H19.4038V19.9756H18.8184V19.3902ZM18.8184 19.9756H19.4038V20.561H18.8184V19.9756ZM18.8184 20.561H19.4038V21.1463H18.8184V20.561ZM18.8184 21.1463H19.4038V21.7317H18.8184V21.1463ZM18.8184 21.7317H19.4038V22.3171H18.8184V21.7317ZM18.8184 22.3171H19.4038V22.9024H18.8184V22.3171ZM18.8184 22.9024H19.4038V23.4878H18.8184V22.9024ZM18.8184 23.4878H19.4038V24.0732H18.8184V23.4878ZM18.233 23.4878H18.8184V24.0732H18.233V23.4878ZM18.233 24.0732H18.8184V24.6585H18.233V24.0732ZM18.8184 24.0732H19.4038V24.6585H18.8184V24.0732ZM17.6477 24.0732H18.233V24.6585H17.6477V24.0732ZM17.0623 24.0732H17.6477V24.6585H17.0623V24.0732ZM16.4769 24.0732H17.0623V24.6585H16.4769V24.0732ZM15.8916 24.0732H16.4769V24.6585H15.8916V24.0732ZM16.4769 23.4878H17.0623V24.0732H16.4769V23.4878ZM16.4769 22.9024H17.0623V23.4878H16.4769V22.9024ZM16.4769 22.3171H17.0623V22.9024H16.4769V22.3171ZM16.4769 21.7317H17.0623V22.3171H16.4769V21.7317ZM16.4769 21.1463H17.0623V21.7317H16.4769V21.1463ZM16.4769 20.561H17.0623V21.1463H16.4769V20.561ZM16.4769 19.9756H17.0623V20.561H16.4769V19.9756ZM16.4769 19.3902H17.0623V19.9756H16.4769V19.3902ZM16.4769 18.8049H17.0623V19.3902H16.4769V18.8049ZM17.0623 18.8049H17.6477V19.3902H17.0623V18.8049ZM17.6477 18.8049H18.233V19.3902H17.6477V18.8049ZM18.233 18.8049H18.8184V19.3902H18.233V18.8049ZM18.233 19.3902H18.8184V19.9756H18.233V19.3902ZM18.233 19.9756H18.8184V20.561H18.233V19.9756ZM18.233 20.561H18.8184V21.1463H18.233V20.561ZM18.233 21.1463H18.8184V21.7317H18.233V21.1463ZM18.233 21.7317H18.8184V22.3171H18.233V21.7317ZM18.233 22.3171H18.8184V22.9024H18.233V22.3171ZM18.233 22.9024H18.8184V23.4878H18.233V22.9024ZM17.6477 23.4878H18.233V24.0732H17.6477V23.4878ZM17.0623 23.4878H17.6477V24.0732H17.0623V23.4878ZM17.0623 22.9024H17.6477V23.4878H17.0623V22.9024ZM17.0623 22.3171H17.6477V22.9024H17.0623V22.3171ZM17.0623 21.7317H17.6477V22.3171H17.0623V21.7317ZM17.0623 21.1463H17.6477V21.7317H17.0623V21.1463ZM17.6477 21.1463H18.233V21.7317H17.6477V21.1463ZM17.6477 20.561H18.233V21.1463H17.6477V20.561ZM17.6477 19.9756H18.233V20.561H17.6477V19.9756ZM17.6477 19.3902H18.233V19.9756H17.6477V19.3902ZM17.0623 19.3902H17.6477V19.9756H17.0623V19.3902ZM17.0623 19.9756H17.6477V20.561H17.0623V19.9756ZM17.0623 20.561H17.6477V21.1463H17.0623V20.561ZM17.6477 22.3171H18.233V22.9024H17.6477V22.3171ZM17.6477 22.9024H18.233V23.4878H17.6477V22.9024ZM17.6477 21.7317H18.233V22.3171H17.6477V21.7317ZM12.9647 24.6585H13.5501V25.2439H12.9647V24.6585ZM13.5501 26.4146H14.1355V27H13.5501V26.4146ZM14.1355 26.4146H14.7208V27H14.1355V26.4146ZM14.7208 26.4146H15.3062V27H14.7208V26.4146ZM15.3062 26.4146H15.8916V27H15.3062V26.4146ZM15.8916 26.4146H16.4769V27H15.8916V26.4146ZM16.4769 26.4146H17.0623V27H16.4769V26.4146ZM15.8916 25.8293H16.4769V26.4146H15.8916V25.8293ZM15.3062 25.8293H15.8916V26.4146H15.3062V25.8293ZM14.7208 25.8293H15.3062V26.4146H14.7208V25.8293ZM14.1355 25.8293H14.7208V26.4146H14.1355V25.8293ZM13.5501 25.8293H14.1355V26.4146H13.5501V25.8293ZM12.9647 25.8293H13.5501V26.4146H12.9647V25.8293ZM12.9647 25.2439H13.5501V25.8293H12.9647V25.2439ZM13.5501 25.2439H14.1355V25.8293H13.5501V25.2439ZM14.1355 25.2439H14.7208V25.8293H14.1355V25.2439ZM14.7208 25.2439H15.3062V25.8293H14.7208V25.2439ZM15.3062 25.2439H15.8916V25.8293H15.3062V25.2439ZM15.8916 25.2439H16.4769V25.8293H15.8916V25.2439ZM16.4769 25.8293H17.0623V26.4146H16.4769V25.8293ZM17.0623 25.8293H17.6477V26.4146H17.0623V25.8293ZM17.6477 25.8293H18.233V26.4146H17.6477V25.8293ZM17.6477 25.2439H18.233V25.8293H17.6477V25.2439ZM18.233 25.2439H18.8184V25.8293H18.233V25.2439ZM18.233 24.6585H18.8184V25.2439H18.233V24.6585ZM17.6477 24.6585H18.233V25.2439H17.6477V24.6585ZM17.0623 24.6585H17.6477V25.2439H17.0623V24.6585ZM16.4769 24.6585H17.0623V25.2439H16.4769V24.6585ZM15.8916 24.6585H16.4769V25.2439H15.8916V24.6585ZM15.3062 24.6585H15.8916V25.2439H15.3062V24.6585ZM14.7208 24.6585H15.3062V25.2439H14.7208V24.6585ZM14.1355 24.6585H14.7208V25.2439H14.1355V24.6585ZM13.5501 24.6585H14.1355V25.2439H13.5501V24.6585ZM16.4769 25.2439H17.0623V25.8293H16.4769V25.2439ZM17.0623 25.2439H17.6477V25.8293H17.0623V25.2439ZM12.3794 25.2439H12.9647V25.8293H12.3794V25.2439ZM12.3794 24.6585H12.9647V25.2439H12.3794V24.6585ZM12.3794 24.0732H12.9647V24.6585H12.3794V24.0732ZM12.3794 23.4878H12.9647V24.0732H12.3794V23.4878ZM12.3794 22.9024H12.9647V23.4878H12.3794V22.9024ZM12.3794 22.3171H12.9647V22.9024H12.3794V22.3171ZM12.3794 21.7317H12.9647V22.3171H12.3794V21.7317ZM12.3794 21.1463H12.9647V21.7317H12.3794V21.1463ZM12.3794 20.561H12.9647V21.1463H12.3794V20.561ZM12.3794 19.9756H12.9647V20.561H12.3794V19.9756ZM12.3794 19.3902H12.9647V19.9756H12.3794V19.3902ZM12.3794 18.8049H12.9647V19.3902H12.3794V18.8049ZM12.3794 18.2195H12.9647V18.8049H12.3794V18.2195ZM11.794 18.2195H12.3794V18.8049H11.794V18.2195ZM11.794 18.8049H12.3794V19.3902H11.794V18.8049ZM11.794 19.3902H12.3794V19.9756H11.794V19.3902ZM11.794 19.9756H12.3794V20.561H11.794V19.9756ZM11.794 20.561H12.3794V21.1463H11.794V20.561ZM11.794 21.1463H12.3794V21.7317H11.794V21.1463ZM11.794 21.7317H12.3794V22.3171H11.794V21.7317ZM11.2087 22.3171H11.794V22.9024H11.2087V22.3171ZM11.2087 22.9024H11.794V23.4878H11.2087V22.9024ZM11.2087 23.4878H11.794V24.0732H11.2087V23.4878ZM11.2087 24.0732H11.794V24.6585H11.2087V24.0732ZM11.2087 24.6585H11.794V25.2439H11.2087V24.6585ZM11.2087 25.2439H11.794V25.8293H11.2087V25.2439ZM11.2087 25.8293H11.794V26.4146H11.2087V25.8293ZM11.2087 26.4146H11.794V27H11.2087V26.4146ZM10.6233 26.4146H11.2087V27H10.6233V26.4146ZM10.0379 26.4146H10.6233V27H10.0379V26.4146ZM10.0379 25.8293H10.6233V26.4146H10.0379V25.8293ZM10.0379 25.2439H10.6233V25.8293H10.0379V25.2439ZM10.0379 24.6585H10.6233V25.2439H10.0379V24.6585ZM10.0379 24.0732H10.6233V24.6585H10.0379V24.0732ZM10.0379 23.4878H10.6233V24.0732H10.0379V23.4878ZM10.0379 22.9024H10.6233V23.4878H10.0379V22.9024ZM10.0379 22.3171H10.6233V22.9024H10.0379V22.3171ZM10.6233 22.3171H11.2087V22.9024H10.6233V22.3171ZM10.6233 21.7317H11.2087V22.3171H10.6233V21.7317ZM10.6233 22.9024H11.2087V23.4878H10.6233V22.9024ZM10.6233 23.4878H11.2087V24.0732H10.6233V23.4878ZM10.6233 24.0732H11.2087V24.6585H10.6233V24.0732ZM10.6233 24.6585H11.2087V25.2439H10.6233V24.6585ZM10.6233 25.2439H11.2087V25.8293H10.6233V25.2439ZM10.6233 25.8293H11.2087V26.4146H10.6233V25.8293ZM11.794 25.2439H12.3794V25.8293H11.794V25.2439ZM11.794 24.6585H12.3794V25.2439H11.794V24.6585ZM11.794 24.0732H12.3794V24.6585H11.794V24.0732ZM11.794 23.4878H12.3794V24.0732H11.794V23.4878ZM11.794 22.9024H12.3794V23.4878H11.794V22.9024ZM11.794 22.3171H12.3794V22.9024H11.794V22.3171ZM12.3794 27H12.9647V27.5854H12.3794V27ZM12.3794 27.5854H12.9647V28.1707H12.3794V27.5854ZM12.3794 28.1707H12.9647V28.7561H12.3794V28.1707ZM12.3794 28.7561H12.9647V29.3415H12.3794V28.7561ZM12.3794 29.3415H12.9647V29.9268H12.3794V29.3415ZM12.3794 29.9268H12.9647V30.5122H12.3794V29.9268ZM12.3794 16.4634H12.9647V17.0488H12.3794V16.4634ZM12.3794 17.6341H12.9647V18.2195H12.3794V17.6341ZM10.6233 27H11.2087V27.5854H10.6233V27ZM10.6233 27.5854H11.2087V28.1707H10.6233V27.5854ZM10.6233 28.1707H11.2087V28.7561H10.6233V28.1707ZM10.6233 28.7561H11.2087V29.3415H10.6233V28.7561ZM10.6233 29.3415H11.2087V29.9268H10.6233V29.3415ZM10.6233 29.9268H11.2087V30.5122H10.6233V29.9268ZM10.6233 16.4634H11.2087V17.0488H10.6233V16.4634ZM10.6233 17.0488H11.2087V17.6341H10.6233V17.0488ZM10.6233 17.6341H11.2087V18.2195H10.6233V17.6341ZM10.6233 18.8049H11.2087V19.3902H10.6233V18.8049ZM10.6233 19.3902H11.2087V19.9756H10.6233V19.3902ZM10.6233 19.9756H11.2087V20.561H10.6233V19.9756ZM10.0379 20.561H10.6233V21.1463H10.0379V20.561ZM10.0379 21.1463H10.6233V21.7317H10.0379V21.1463ZM10.0379 21.7317H10.6233V22.3171H10.0379V21.7317ZM10.0379 19.9756H10.6233V20.561H10.0379V19.9756ZM10.0379 19.3902H10.6233V19.9756H10.0379V19.3902ZM10.0379 18.2195H10.6233V18.8049H10.0379V18.2195ZM10.0379 17.6341H10.6233V18.2195H10.0379V17.6341ZM10.0379 17.0488H10.6233V17.6341H10.0379V17.0488ZM10.0379 16.4634H10.6233V17.0488H10.0379V16.4634ZM10.0379 15.878H10.6233V16.4634H10.0379V15.878ZM10.0379 29.9268H10.6233V30.5122H10.0379V29.9268ZM10.0379 29.3415H10.6233V29.9268H10.0379V29.3415ZM10.6233 15.878H11.2087V16.4634H10.6233V15.878ZM10.0379 28.7561H10.6233V29.3415H10.0379V28.7561ZM10.0379 28.1707H10.6233V28.7561H10.0379V28.1707ZM10.0379 27.5854H10.6233V28.1707H10.0379V27.5854ZM10.0379 27H10.6233V27.5854H10.0379V27ZM11.2087 27H11.794V27.5854H11.2087V27ZM11.794 27H12.3794V27.5854H11.794V27ZM11.794 27.5854H12.3794V28.1707H11.794V27.5854ZM11.2087 27.5854H11.794V28.1707H11.2087V27.5854ZM11.2087 28.1707H11.794V28.7561H11.2087V28.1707ZM11.2087 28.7561H11.794V29.3415H11.2087V28.7561ZM11.2087 29.3415H11.794V29.9268H11.2087V29.3415ZM11.2087 29.9268H11.794V30.5122H11.2087V29.9268ZM11.2087 15.878H11.794V16.4634H11.2087V15.878ZM11.2087 16.4634H11.794V17.0488H11.2087V16.4634ZM11.794 17.0488H12.3794V17.6341H11.794V17.0488ZM11.794 17.6341H12.3794V18.2195H11.794V17.6341ZM11.794 16.4634H12.3794V17.0488H11.794V16.4634ZM11.794 15.878H12.3794V16.4634H11.794V15.878ZM11.794 29.9268H12.3794V30.5122H11.794V29.9268ZM11.794 29.3415H12.3794V29.9268H11.794V29.3415ZM11.794 28.7561H12.3794V29.3415H11.794V28.7561ZM11.794 28.1707H12.3794V28.7561H11.794V28.1707ZM11.2087 17.6341H11.794V18.2195H11.2087V17.6341ZM11.2087 18.8049H11.794V19.3902H11.2087V18.8049ZM11.2087 19.3902H11.794V19.9756H11.2087V19.3902ZM11.2087 19.9756H11.794V20.561H11.2087V19.9756ZM11.2087 20.561H11.794V21.1463H11.2087V20.561ZM11.2087 21.1463H11.794V21.7317H11.2087V21.1463ZM11.2087 21.7317H11.794V22.3171H11.2087V21.7317ZM10.6233 21.1463H11.2087V21.7317H10.6233V21.1463ZM10.6233 20.561H11.2087V21.1463H10.6233V20.561ZM12.3794 15.878H12.9647V16.4634H12.3794V15.878ZM10.0379 18.8049H10.6233V19.3902H10.0379V18.8049ZM12.3794 17.0488H12.9647V17.6341H12.3794V17.0488ZM11.2087 17.0488H11.794V17.6341H11.2087V17.0488ZM11.2087 18.2195H11.794V18.8049H11.2087V18.2195ZM10.6233 18.2195H11.2087V18.8049H10.6233V18.2195ZM12.3794 25.8293H12.9647V26.4146H12.3794V25.8293ZM11.794 25.8293H12.3794V26.4146H11.794V25.8293ZM11.794 26.4146H12.3794V27H11.794V26.4146ZM14.1355 15.878V16.4634H13.5501V15.878H14.1355ZM12.9647 26.4146V27H12.3794V26.4146H12.9647ZM13.5501 18.2195V18.8049H12.9647V18.2195H13.5501ZM13.5501 26.4146V27H12.9647V26.4146H13.5501ZM24.0976 17.6341H24.6829V18.2195H24.0976V17.6341ZM24.0976 17.0488H24.6829V17.6341H24.0976V17.0488ZM24.0976 16.4634H24.6829V17.0488H24.0976V16.4634ZM24.6829 16.4634H25.2683V17.0488H24.6829V16.4634ZM24.6829 17.0488H25.2683V17.6341H24.6829V17.0488ZM25.2683 17.0488H25.8537V17.6341H25.2683V17.0488ZM25.2683 17.6341H25.8537V18.2195H25.2683V17.6341ZM24.6829 17.6341H25.2683V18.2195H24.6829V17.6341ZM25.8537 17.6341H26.439V18.2195H25.8537V17.6341ZM25.8537 17.0488H26.439V17.6341H25.8537V17.0488ZM25.8537 16.4634H26.439V17.0488H25.8537V16.4634ZM25.8537 15.878H26.439V16.4634H25.8537V15.878ZM25.2683 15.878H25.8537V16.4634H25.2683V15.878ZM25.2683 16.4634H25.8537V17.0488H25.2683V16.4634ZM26.439 15.878H27.0244V16.4634H26.439V15.878ZM27.0244 15.878H27.6098V16.4634H27.0244V15.878ZM27.6098 15.878H28.1951V16.4634H27.6098V15.878ZM27.6098 16.4634H28.1951V17.0488H27.6098V16.4634ZM27.6098 17.0488H28.1951V17.6341H27.6098V17.0488ZM27.6098 17.6341H28.1951V18.2195H27.6098V17.6341ZM27.0244 17.6341H27.6098V18.2195H27.0244V17.6341ZM26.439 17.6341H27.0244V18.2195H26.439V17.6341ZM26.439 17.0488H27.0244V17.6341H26.439V17.0488ZM26.439 16.4634H27.0244V17.0488H26.439V16.4634ZM27.0244 16.4634H27.6098V17.0488H27.0244V16.4634ZM27.0244 17.0488H27.6098V17.6341H27.0244V17.0488ZM28.1951 17.0488H28.7805V17.6341H28.1951V17.0488ZM28.1951 16.4634H28.7805V17.0488H28.1951V16.4634ZM28.7805 16.4634H29.3659V17.0488H28.7805V16.4634ZM28.7805 17.0488H29.3659V17.6341H28.7805V17.0488ZM29.3659 17.0488H29.9512V17.6341H29.3659V17.0488ZM29.3659 17.6341H29.9512V18.2195H29.3659V17.6341ZM29.3659 18.2195H29.9512V18.8049H29.3659V18.2195ZM28.7805 18.2195H29.3659V18.8049H28.7805V18.2195ZM28.7805 17.6341H29.3659V18.2195H28.7805V17.6341ZM28.1951 17.6341H28.7805V18.2195H28.1951V17.6341ZM28.1951 18.2195H28.7805V18.8049H28.1951V18.2195ZM27.6098 18.2195H28.1951V18.8049H27.6098V18.2195ZM27.0244 18.2195H27.6098V18.8049H27.0244V18.2195ZM29.9512 18.2195H30.5366V18.8049H29.9512V18.2195ZM29.9512 18.8049H30.5366V19.3902H29.9512V18.8049ZM29.9512 19.3902H30.5366V19.9756H29.9512V19.3902ZM29.9512 19.9756H30.5366V20.561H29.9512V19.9756ZM29.9512 20.561H30.5366V21.1463H29.9512V20.561ZM29.9512 21.1463H30.5366V21.7317H29.9512V21.1463ZM29.9512 21.7317H30.5366V22.3171H29.9512V21.7317ZM29.9512 22.3171H30.5366V22.9024H29.9512V22.3171ZM29.9512 22.9024H30.5366V23.4878H29.9512V22.9024ZM29.9512 23.4878H30.5366V24.0732H29.9512V23.4878ZM29.3659 23.4878H29.9512V24.0732H29.3659V23.4878ZM29.3659 24.0732H29.9512V24.6585H29.3659V24.0732ZM29.9512 24.0732H30.5366V24.6585H29.9512V24.0732ZM28.7805 24.0732H29.3659V24.6585H28.7805V24.0732ZM28.1951 24.0732H28.7805V24.6585H28.1951V24.0732ZM27.6098 24.0732H28.1951V24.6585H27.6098V24.0732ZM27.0244 24.0732H27.6098V24.6585H27.0244V24.0732ZM27.6098 23.4878H28.1951V24.0732H27.6098V23.4878ZM27.6098 22.9024H28.1951V23.4878H27.6098V22.9024ZM27.6098 22.3171H28.1951V22.9024H27.6098V22.3171ZM27.6098 21.7317H28.1951V22.3171H27.6098V21.7317ZM27.6098 21.1463H28.1951V21.7317H27.6098V21.1463ZM27.6098 20.561H28.1951V21.1463H27.6098V20.561ZM27.6098 19.9756H28.1951V20.561H27.6098V19.9756ZM27.6098 19.3902H28.1951V19.9756H27.6098V19.3902ZM27.6098 18.8049H28.1951V19.3902H27.6098V18.8049ZM28.1951 18.8049H28.7805V19.3902H28.1951V18.8049ZM28.7805 18.8049H29.3659V19.3902H28.7805V18.8049ZM29.3659 18.8049H29.9512V19.3902H29.3659V18.8049ZM29.3659 19.3902H29.9512V19.9756H29.3659V19.3902ZM29.3659 19.9756H29.9512V20.561H29.3659V19.9756ZM29.3659 20.561H29.9512V21.1463H29.3659V20.561ZM29.3659 21.1463H29.9512V21.7317H29.3659V21.1463ZM29.3659 21.7317H29.9512V22.3171H29.3659V21.7317ZM29.3659 22.3171H29.9512V22.9024H29.3659V22.3171ZM29.3659 22.9024H29.9512V23.4878H29.3659V22.9024ZM28.7805 23.4878H29.3659V24.0732H28.7805V23.4878ZM28.1951 23.4878H28.7805V24.0732H28.1951V23.4878ZM28.1951 22.9024H28.7805V23.4878H28.1951V22.9024ZM28.1951 22.3171H28.7805V22.9024H28.1951V22.3171ZM28.1951 21.7317H28.7805V22.3171H28.1951V21.7317ZM28.1951 21.1463H28.7805V21.7317H28.1951V21.1463ZM28.7805 21.1463H29.3659V21.7317H28.7805V21.1463ZM28.7805 20.561H29.3659V21.1463H28.7805V20.561ZM28.7805 19.9756H29.3659V20.561H28.7805V19.9756ZM28.7805 19.3902H29.3659V19.9756H28.7805V19.3902ZM28.1951 19.3902H28.7805V19.9756H28.1951V19.3902ZM28.1951 19.9756H28.7805V20.561H28.1951V19.9756ZM28.1951 20.561H28.7805V21.1463H28.1951V20.561ZM28.7805 22.3171H29.3659V22.9024H28.7805V22.3171ZM28.7805 22.9024H29.3659V23.4878H28.7805V22.9024ZM28.7805 21.7317H29.3659V22.3171H28.7805V21.7317ZM24.0976 24.6585H24.6829V25.2439H24.0976V24.6585ZM24.6829 26.4146H25.2683V27H24.6829V26.4146ZM25.2683 26.4146H25.8537V27H25.2683V26.4146ZM25.8537 26.4146H26.439V27H25.8537V26.4146ZM26.439 26.4146H27.0244V27H26.439V26.4146ZM27.0244 26.4146H27.6098V27H27.0244V26.4146ZM27.6098 26.4146H28.1951V27H27.6098V26.4146ZM27.0244 25.8293H27.6098V26.4146H27.0244V25.8293ZM26.439 25.8293H27.0244V26.4146H26.439V25.8293ZM25.8537 25.8293H26.439V26.4146H25.8537V25.8293ZM25.2683 25.8293H25.8537V26.4146H25.2683V25.8293ZM24.6829 25.8293H25.2683V26.4146H24.6829V25.8293ZM24.0976 25.8293H24.6829V26.4146H24.0976V25.8293ZM24.0976 25.2439H24.6829V25.8293H24.0976V25.2439ZM24.6829 25.2439H25.2683V25.8293H24.6829V25.2439ZM25.2683 25.2439H25.8537V25.8293H25.2683V25.2439ZM25.8537 25.2439H26.439V25.8293H25.8537V25.2439ZM26.439 25.2439H27.0244V25.8293H26.439V25.2439ZM27.0244 25.2439H27.6098V25.8293H27.0244V25.2439ZM27.6098 25.8293H28.1951V26.4146H27.6098V25.8293ZM28.1951 25.8293H28.7805V26.4146H28.1951V25.8293ZM28.7805 25.8293H29.3659V26.4146H28.7805V25.8293ZM28.7805 25.2439H29.3659V25.8293H28.7805V25.2439ZM29.3659 25.2439H29.9512V25.8293H29.3659V25.2439ZM29.3659 24.6585H29.9512V25.2439H29.3659V24.6585ZM28.7805 24.6585H29.3659V25.2439H28.7805V24.6585ZM28.1951 24.6585H28.7805V25.2439H28.1951V24.6585ZM27.6098 24.6585H28.1951V25.2439H27.6098V24.6585ZM27.0244 24.6585H27.6098V25.2439H27.0244V24.6585ZM26.439 24.6585H27.0244V25.2439H26.439V24.6585ZM25.8537 24.6585H26.439V25.2439H25.8537V24.6585ZM25.2683 24.6585H25.8537V25.2439H25.2683V24.6585ZM24.6829 24.6585H25.2683V25.2439H24.6829V24.6585ZM27.6098 25.2439H28.1951V25.8293H27.6098V25.2439ZM28.1951 25.2439H28.7805V25.8293H28.1951V25.2439ZM23.5122 25.2439H24.0976V25.8293H23.5122V25.2439ZM23.5122 24.6585H24.0976V25.2439H23.5122V24.6585ZM23.5122 24.0732H24.0976V24.6585H23.5122V24.0732ZM23.5122 23.4878H24.0976V24.0732H23.5122V23.4878ZM23.5122 22.9024H24.0976V23.4878H23.5122V22.9024ZM23.5122 22.3171H24.0976V22.9024H23.5122V22.3171ZM23.5122 21.7317H24.0976V22.3171H23.5122V21.7317ZM23.5122 21.1463H24.0976V21.7317H23.5122V21.1463ZM23.5122 20.561H24.0976V21.1463H23.5122V20.561ZM23.5122 19.9756H24.0976V20.561H23.5122V19.9756ZM23.5122 19.3902H24.0976V19.9756H23.5122V19.3902ZM23.5122 18.8049H24.0976V19.3902H23.5122V18.8049ZM23.5122 18.2195H24.0976V18.8049H23.5122V18.2195ZM22.9268 18.2195H23.5122V18.8049H22.9268V18.2195ZM22.9268 18.8049H23.5122V19.3902H22.9268V18.8049ZM22.9268 19.3902H23.5122V19.9756H22.9268V19.3902ZM22.9268 19.9756H23.5122V20.561H22.9268V19.9756ZM22.9268 20.561H23.5122V21.1463H22.9268V20.561ZM22.9268 21.1463H23.5122V21.7317H22.9268V21.1463ZM22.9268 21.7317H23.5122V22.3171H22.9268V21.7317ZM22.3415 22.3171H22.9268V22.9024H22.3415V22.3171ZM22.3415 22.9024H22.9268V23.4878H22.3415V22.9024ZM22.3415 23.4878H22.9268V24.0732H22.3415V23.4878ZM22.3415 24.0732H22.9268V24.6585H22.3415V24.0732ZM22.3415 24.6585H22.9268V25.2439H22.3415V24.6585ZM22.3415 25.2439H22.9268V25.8293H22.3415V25.2439ZM22.3415 25.8293H22.9268V26.4146H22.3415V25.8293ZM22.3415 26.4146H22.9268V27H22.3415V26.4146ZM21.7561 26.4146H22.3415V27H21.7561V26.4146ZM21.1707 26.4146H21.7561V27H21.1707V26.4146ZM21.1707 25.8293H21.7561V26.4146H21.1707V25.8293ZM21.1707 25.2439H21.7561V25.8293H21.1707V25.2439ZM21.1707 24.6585H21.7561V25.2439H21.1707V24.6585ZM21.1707 24.0732H21.7561V24.6585H21.1707V24.0732ZM21.1707 23.4878H21.7561V24.0732H21.1707V23.4878ZM21.1707 22.9024H21.7561V23.4878H21.1707V22.9024ZM21.1707 22.3171H21.7561V22.9024H21.1707V22.3171ZM21.7561 22.3171H22.3415V22.9024H21.7561V22.3171ZM21.7561 21.7317H22.3415V22.3171H21.7561V21.7317ZM21.7561 22.9024H22.3415V23.4878H21.7561V22.9024ZM21.7561 23.4878H22.3415V24.0732H21.7561V23.4878ZM21.7561 24.0732H22.3415V24.6585H21.7561V24.0732ZM21.7561 24.6585H22.3415V25.2439H21.7561V24.6585ZM21.7561 25.2439H22.3415V25.8293H21.7561V25.2439ZM21.7561 25.8293H22.3415V26.4146H21.7561V25.8293ZM22.9268 25.2439H23.5122V25.8293H22.9268V25.2439ZM22.9268 24.6585H23.5122V25.2439H22.9268V24.6585ZM22.9268 24.0732H23.5122V24.6585H22.9268V24.0732ZM22.9268 23.4878H23.5122V24.0732H22.9268V23.4878ZM22.9268 22.9024H23.5122V23.4878H22.9268V22.9024ZM22.9268 22.3171H23.5122V22.9024H22.9268V22.3171ZM23.5122 12.3659H24.0976V12.9512H23.5122V12.3659ZM23.5122 12.9512H24.0976V13.5366H23.5122V12.9512ZM23.5122 13.5366H24.0976V14.122H23.5122V13.5366ZM23.5122 14.122H24.0976V14.7073H23.5122V14.122ZM23.5122 14.7073H24.0976V15.2927H23.5122V14.7073ZM23.5122 15.2927H24.0976V15.878H23.5122V15.2927ZM23.5122 16.4634H24.0976V17.0488H23.5122V16.4634ZM23.5122 17.6341H24.0976V18.2195H23.5122V17.6341ZM21.7561 12.3659H22.3415V12.9512H21.7561V12.3659ZM21.7561 12.9512H22.3415V13.5366H21.7561V12.9512ZM21.7561 13.5366H22.3415V14.122H21.7561V13.5366ZM21.7561 14.122H22.3415V14.7073H21.7561V14.122ZM21.7561 14.7073H22.3415V15.2927H21.7561V14.7073ZM21.7561 15.2927H22.3415V15.878H21.7561V15.2927ZM21.7561 16.4634H22.3415V17.0488H21.7561V16.4634ZM21.7561 17.0488H22.3415V17.6341H21.7561V17.0488ZM21.7561 17.6341H22.3415V18.2195H21.7561V17.6341ZM21.7561 18.8049H22.3415V19.3902H21.7561V18.8049ZM21.7561 19.3902H22.3415V19.9756H21.7561V19.3902ZM21.7561 19.9756H22.3415V20.561H21.7561V19.9756ZM21.1707 20.561H21.7561V21.1463H21.1707V20.561ZM21.1707 21.1463H21.7561V21.7317H21.1707V21.1463ZM21.1707 21.7317H21.7561V22.3171H21.1707V21.7317ZM21.1707 19.9756H21.7561V20.561H21.1707V19.9756ZM21.1707 19.3902H21.7561V19.9756H21.1707V19.3902ZM21.1707 18.2195H21.7561V18.8049H21.1707V18.2195ZM21.1707 17.6341H21.7561V18.2195H21.1707V17.6341ZM21.1707 17.0488H21.7561V17.6341H21.1707V17.0488ZM21.1707 16.4634H21.7561V17.0488H21.1707V16.4634ZM21.1707 15.878H21.7561V16.4634H21.1707V15.878ZM21.1707 15.2927H21.7561V15.878H21.1707V15.2927ZM21.1707 14.7073H21.7561V15.2927H21.1707V14.7073ZM21.7561 15.878H22.3415V16.4634H21.7561V15.878ZM21.1707 14.122H21.7561V14.7073H21.1707V14.122ZM21.1707 13.5366H21.7561V14.122H21.1707V13.5366ZM21.1707 12.9512H21.7561V13.5366H21.1707V12.9512ZM21.1707 12.3659H21.7561V12.9512H21.1707V12.3659ZM22.3415 12.3659H22.9268V12.9512H22.3415V12.3659ZM22.9268 12.3659H23.5122V12.9512H22.9268V12.3659ZM22.9268 12.9512H23.5122V13.5366H22.9268V12.9512ZM22.3415 12.9512H22.9268V13.5366H22.3415V12.9512ZM22.3415 13.5366H22.9268V14.122H22.3415V13.5366ZM22.3415 14.122H22.9268V14.7073H22.3415V14.122ZM22.3415 14.7073H22.9268V15.2927H22.3415V14.7073ZM22.3415 15.2927H22.9268V15.878H22.3415V15.2927ZM22.3415 15.878H22.9268V16.4634H22.3415V15.878ZM22.3415 16.4634H22.9268V17.0488H22.3415V16.4634ZM22.9268 17.0488H23.5122V17.6341H22.9268V17.0488ZM22.9268 17.6341H23.5122V18.2195H22.9268V17.6341ZM22.9268 16.4634H23.5122V17.0488H22.9268V16.4634ZM22.9268 15.878H23.5122V16.4634H22.9268V15.878ZM22.9268 15.2927H23.5122V15.878H22.9268V15.2927ZM22.9268 14.7073H23.5122V15.2927H22.9268V14.7073ZM22.9268 14.122H23.5122V14.7073H22.9268V14.122ZM22.9268 13.5366H23.5122V14.122H22.9268V13.5366ZM22.3415 17.6341H22.9268V18.2195H22.3415V17.6341ZM22.3415 18.8049H22.9268V19.3902H22.3415V18.8049ZM22.3415 19.3902H22.9268V19.9756H22.3415V19.3902ZM22.3415 19.9756H22.9268V20.561H22.3415V19.9756ZM22.3415 20.561H22.9268V21.1463H22.3415V20.561ZM22.3415 21.1463H22.9268V21.7317H22.3415V21.1463ZM22.3415 21.7317H22.9268V22.3171H22.3415V21.7317ZM21.7561 21.1463H22.3415V21.7317H21.7561V21.1463ZM21.7561 20.561H22.3415V21.1463H21.7561V20.561ZM23.5122 15.878H24.0976V16.4634H23.5122V15.878ZM21.1707 18.8049H21.7561V19.3902H21.1707V18.8049ZM23.5122 17.0488H24.0976V17.6341H23.5122V17.0488ZM22.3415 17.0488H22.9268V17.6341H22.3415V17.0488ZM22.3415 18.2195H22.9268V18.8049H22.3415V18.2195ZM21.7561 18.2195H22.3415V18.8049H21.7561V18.2195ZM24.0976 26.4146H24.6829V27H24.0976V26.4146ZM23.5122 25.8293H24.0976V26.4146H23.5122V25.8293ZM22.9268 25.8293H23.5122V26.4146H22.9268V25.8293ZM22.9268 26.4146H23.5122V27H22.9268V26.4146ZM25.2683 15.878V16.4634H24.6829V15.878H25.2683ZM24.0976 26.4146V27H23.5122V26.4146H24.0976ZM24.6829 18.2195V18.8049H24.0976V18.2195H24.6829Z" fill="white"/>
</svg>
