<svg width="16" height="16" viewBox="0 0 16 16" fill="none" xmlns="http://www.w3.org/2000/svg">
<path d="M1.38217 14.9035L0.80873 14.308C0.309103 13.7901 0 13.0742 0 12.2833C0 11.4924 0.309103 10.7765 0.808686 10.2587L4.6197 6.2992C4.7007 6.21508 4.8126 6.16304 4.93619 6.16304C5.18337 6.16304 5.38377 6.37118 5.38377 6.62791C5.38377 6.75628 5.33367 6.87249 5.25267 6.95661L1.44169 10.9161C1.10536 11.2661 0.89737 11.7493 0.89737 12.283C0.89737 12.8166 1.10534 13.2998 1.44172 13.6499L2.01513 14.2455C2.35196 14.5953 2.81725 14.8116 3.3312 14.8116C3.84515 14.8116 4.31046 14.5953 4.64727 14.2455L8.45887 10.286C8.79521 9.93595 9.0032 9.45274 9.0032 8.9191C9.0032 8.38545 8.79522 7.90223 8.45884 7.55217L8.45887 7.5522C8.37788 7.46807 8.32778 7.35185 8.32778 7.22349C8.32778 6.96676 8.52817 6.75863 8.77536 6.75863C8.89896 6.75863 9.01084 6.81066 9.09184 6.89479C9.58966 7.41345 9.89745 8.12911 9.89745 8.91943C9.89745 9.70975 9.58966 10.4254 9.09177 10.9441L5.28086 14.9035C4.78196 15.4211 4.09303 15.7412 3.33213 15.7412C2.57123 15.7412 1.8823 15.4211 1.38337 14.9035L1.3834 14.9035L1.38217 14.9035ZM10.7514 9.70083C10.67 9.61676 10.6197 9.50038 10.6197 9.37179C10.6197 9.24321 10.67 9.12683 10.7514 9.04278L14.5624 5.08331C14.8987 4.73326 15.1067 4.25006 15.1067 3.71641C15.1067 3.18276 14.8987 2.69954 14.5623 2.34948L13.9889 1.75393C13.6521 1.40413 13.1868 1.18778 12.6728 1.18778C12.1589 1.18778 11.6936 1.40413 11.3568 1.75393L7.5458 5.71339C7.20946 6.06344 7.00147 6.54664 7.00147 7.08029C7.00147 7.61393 7.20945 8.09715 7.54583 8.44722L7.5458 8.44719C7.6268 8.53131 7.67689 8.64753 7.67689 8.77589C7.67689 9.03263 7.4765 9.24076 7.22932 9.24076C7.10572 9.24076 6.99383 9.18872 6.91283 9.1046C6.4152 8.58598 6.10752 7.87044 6.10752 7.08027C6.10752 6.2901 6.4152 5.57458 6.91291 5.05587L10.7238 1.09649C11.2227 0.578893 11.9116 0.258789 12.6725 0.258789C13.4334 0.258789 14.1224 0.578893 14.6213 1.0965L15.1947 1.69205C15.6923 2.21008 16 2.92509 16 3.71475C16 4.50602 15.691 5.22234 15.1916 5.74067L11.3806 9.70082C11.3011 9.7857 11.1901 9.83846 11.0673 9.8388H11.0673C10.9438 9.8375 10.8323 9.78502 10.7514 9.70082L10.7514 9.7008L10.7514 9.70083Z" fill="#2A2A31"/>
</svg>
